{
  "accessors": [
    {
      "bufferView": 2,
      "componentType": 5126,
      "count": 65532,
      "max": [
        -3.2825000286102295,
        -776.4429931640625,
        37.548198699951172
      ],
      "min": [
        -71.913398742675781,
        -807.03399658203125,
        -30.480600357055664
      ],
      "type": "VEC3"
    },
    {
      "bufferView": 2,
      "byteOffset": 786384,
      "componentType": 5126,
      "count": 65532,
      "max": [
        0.9999927282333374,
        0.99851369857788086,
        0.99999237060546875
      ],
      "min": [
        -0.99998700618743896,
        -0.99999797344207764,
        -0.99991011619567871
      ],
      "type": "VEC3"
    },
    {
      "bufferView": 3,
      "componentType": 5126,
      "count": 65532,
      "max": [
        0.99997645616531372,
        0.99999982118606567,
        0.99997717142105103,
        1
      ],
      "min": [
        -0.99993389844894409,
        -0.99999916553497314,
        -0.99975490570068359,
        1
      ],
      "type": "VEC4"
    },
    {
      "bufferView": 1,
      "componentType": 5126,
      "count": 65532,
      "max": [
        0.99800002574920654,
        0.99800002574920654
      ],
      "min": [
        0.0020000000949949026,
        0.0020000000949949026
      ],
      "type": "VEC2"
    },
    {
      "bufferView": 0,
      "componentType": 5125,
      "count": 65544,
      "max": [
        65531
      ],
      "min": [
        0
      ],
      "type": "SCALAR"
    },
    {
      "bufferView": 2,
      "byteOffset": 1572768,
      "componentType": 5126,
      "count": 7893,
      "max": [
        -3.3201999664306641,
        -776.4970703125,
        36.888099670410156
      ],
      "min": [
        -71.770103454589844,
        -807.03399658203125,
        -30.377300262451172
      ],
      "type": "VEC3"
    },
    {
      "bufferView": 2,
      "byteOffset": 1667484,
      "componentType": 5126,
      "count": 7893,
      "max": [
        0.99997878074645996,
        0.99186301231384277,
        0.99998068809509277
      ],
      "min": [
        -0.99991559982299805,
        -0.9999542236328125,
        -0.99999988079071045
      ],
      "type": "VEC3"
    },
    {
      "bufferView": 3,
      "byteOffset": 1048512,
      "componentType": 5126,
      "count": 7893,
      "max": [
        0.99992197751998901,
        0.99999958276748657,
        0.9998670220375061,
        1
      ],
      "min": [
        -0.99990630149841309,
        -0.99999368190765381,
        -0.99987626075744629,
        1
      ],
      "type": "VEC4"
    },
    {
      "bufferView": 1,
      "byteOffset": 524256,
      "componentType": 5126,
      "count": 7893,
      "max": [
        0.99690002202987671,
        0.99790000915527344
      ],
      "min": [
        0.0024000001139938831,
        0.0020000000949949026
      ],
      "type": "VEC2"
    },
    {
      "bufferView": 0,
      "byteOffset": 262176,
      "componentType": 5125,
      "count": 7893,
      "max": [
        7892
      ],
      "min": [
        0
      ],
      "type": "SCALAR"
    }
  ],
  "asset": {
    "extras": {
      "author": "Moøkan (https://sketchfab.com/mookan)",
      "license": "CC-BY-4.0 (http://creativecommons.org/licenses/by/4.0/)",
      "source": "https://sketchfab.com/models/5dbe4dc71d8841339e5e602cdcc3f1fc",
      "title": "Castle Villalonso (Zamora, Spain)"
    },
    "generator": "Sketchfab-3.18.5",
    "version": "2.0"
  },
  "bufferViews": [
    {
      "buffer": 0,
      "byteLength": 293748,
      "byteOffset": 0,
      "name": "floatBufferViews",
      "target": 34963
    },
    {
      "buffer": 0,
      "byteLength": 587400,
      "byteOffset": 293748,
      "byteStride": 8,
      "name": "floatBufferViews",
      "target": 34962
    },
    {
      "buffer": 0,
      "byteLength": 1762200,
      "byteOffset": 881148,
      "byteStride": 12,
      "name": "floatBufferViews",
      "target": 34962
    },
    {
      "buffer": 0,
      "byteLength": 1174800,
      "byteOffset": 2643348,
      "byteStride": 16,
      "name": "floatBufferViews",
      "target": 34962
    }
  ],
  "buffers": [
    {
      "byteLength": 3818148,
      "uri": "scene.bin"
    }
  ],
  "images": [
    {
      "uri": "textures/default_normal.jpg"
    },
    {
      "uri": "textures/default_baseColor.jpg"
    }
  ],
  "materials": [
    {
      "doubleSided": true,
      "emissiveFactor": [
        0,
        0,
        0
      ],
      "name": "default",
      "normalTexture": {
        "index": 0,
        "scale": 1,
        "texCoord": 0
      },
      "pbrMetallicRoughness": {
        "baseColorFactor": [
          1,
          1,
          1,
          1
        ],
        "baseColorTexture": {
          "index": 1,
          "texCoord": 0
        },
        "metallicFactor": 0,
        "roughnessFactor": 0.59999999999999998
      }
    }
  ],
  "meshes": [
    {
      "primitives": [
        {
          "attributes": {
            "NORMAL": 1,
            "POSITION": 0,
            "TANGENT": 2,
            "TEXCOORD_0": 3
          },
          "indices": 4,
          "material": 0,
          "mode": 4
        }
      ]
    },
    {
      "primitives": [
        {
          "attributes": {
            "NORMAL": 6,
            "POSITION": 5,
            "TANGENT": 7,
            "TEXCOORD_0": 8
          },
          "indices": 9,
          "material": 0,
          "mode": 4
        }
      ]
    }
  ],
  "nodes": [
    {
      "children": [
        1
      ],
      "name": "RootNode (gltf orientation matrix)",
      "rotation": [
        -0.70710678118654746,
        -0,
        -0,
        0.70710678118654757
      ]
    },
    {
      "children": [
        2
      ],
      "matrix": [
        0.99993383884429932,
        0,
        -0.011502472683787346,
        0,
        -0.011502472683787346,
        0,
        -0.99993383884429932,
        0,
        0,
        1,
        0,
        0,
        -9.1094379425048828,
        -795.2723388671875,
        -788.58477783203125,
        1
      ],
      "name": "RootNode (model correction matrix)"
    },
    {
      "children": [
        3,
        4
      ],
      "name": "castle_low1.obj.cleaner.gles"
    },
    {
      "mesh": 0,
      "name": ""
    },
    {
      "mesh": 1,
      "name": ""
    }
  ],
  "samplers": [
    {
      "magFilter": 9729,
      "minFilter": 9987,
      "wrapS": 10497,
      "wrapT": 10497
    }
  ],
  "scene": 0,
  "scenes": [
    {
      "name": "OSG_Scene",
      "nodes": [
        0
      ]
    }
  ],
  "textures": [
    {
      "sampler": 0,
      "source": 0
    },
    {
      "sampler": 0,
      "source": 1
    }
  ]
}

